<?xml version="1.0" encoding="utf-8"?>
<!-- Generator: Adobe Illustrator 24.0.1, SVG Export Plug-In . SVG Version: 6.00 Build 0)  -->
<svg version="1.1" id="ico" xmlns="http://www.w3.org/2000/svg" xmlns:xlink="http://www.w3.org/1999/xlink" x="0px" y="0px"
	 width="50px" height="50px" viewBox="0 0 50 50" style="enable-background:new 0 0 50 50;" xml:space="preserve">
<path d="M15.219,24.674c0,0.359,0.291,0.65,0.65,0.65s0.65-0.291,0.65-0.65v-3.661c1.256,1.748,3.301,2.893,5.613,2.893
	c2.312,0,4.358-1.145,5.614-2.893v3.661c0,0.359,0.291,0.65,0.65,0.65s0.65-0.291,0.65-0.65v-6.929c0-0.054-0.018-0.101-0.031-0.151
	c0.017-0.199,0.031-0.399,0.031-0.603c0-0.003,0-0.005,0-0.008c0-0.001,0-0.001,0-0.002c0-0.001-0.001-0.002-0.001-0.003
	c-0.002-1.237-0.335-2.396-0.908-3.4l0.896-4.558c0.058-0.291-0.09-0.584-0.357-0.712L24.16,6.151
	c-0.004-0.002-0.009-0.001-0.013-0.003c-0.082-0.037-0.171-0.061-0.267-0.061h-1.401h-2.092c-0.097,0-0.192,0.021-0.28,0.063
	l-4.518,2.157c-0.268,0.128-0.415,0.421-0.357,0.712l0.896,4.558c-0.576,1.008-0.909,2.172-0.909,3.414
	c0,0.203,0.013,0.404,0.031,0.603c-0.012,0.05-0.031,0.098-0.031,0.151V24.674z M22.133,11.377c2.865,0,5.231,2.158,5.569,4.933
	c-2.413-0.237-2.589-1.918-2.604-2.12c-0.013-0.241-0.157-0.455-0.377-0.556c-0.219-0.102-0.475-0.073-0.668,0.074
	c-0.034,0.026-3.276,2.493-7.491,2.627C16.887,13.549,19.259,11.377,22.133,11.377z M22.133,22.606c-2.881,0-5.258-2.182-5.575-4.98
	c3.402-0.102,6.205-1.548,7.504-2.358c0.388,0.923,1.328,2.151,3.649,2.337C27.405,20.414,25.021,22.606,22.133,22.606z
	 M16.604,9.264l3.93-1.876h1.944h1.254l3.93,1.876l-0.573,2.917c-1.257-1.295-3.013-2.103-4.956-2.103
	c-1.943,0-3.698,0.808-4.955,2.102L16.604,9.264z M38.259,32.953c0-0.359-0.291-0.65-0.65-0.65h-2.603v-2.604
	c0-0.359-0.291-0.65-0.65-0.65h-3.322c-1.083-1.815-2.678-3.176-4.586-3.942c-0.117-0.084-0.25-0.134-0.388-0.131
	c-1.056-0.373-2.187-0.589-3.376-0.589h-1.103c-1.254,0-2.427,0.219-3.502,0.608c-0.071,0.013-0.138,0.036-0.202,0.073
	c-3.702,1.432-6.136,5.018-6.136,9.569v8.625c0,0.359,0.291,0.65,0.65,0.65h19.483c0.359,0,0.65-0.291,0.65-0.65v-1.446h1.83
	c0.359,0,0.65-0.291,0.65-0.65v-2.603h2.603c0.359,0,0.65-0.291,0.65-0.65V32.953z M22.685,25.688c0.741,0,1.457,0.094,2.143,0.263
	l-2.694,2.694l-2.695-2.695c0.68-0.165,1.394-0.261,2.144-0.261H22.685z M31.225,42.612H13.042v-7.975
	c0-3.845,1.977-6.904,5.015-8.231l3.616,3.617c0.122,0.122,0.287,0.19,0.46,0.19s0.338-0.068,0.46-0.19l3.602-3.602
	c1.308,0.574,2.447,1.461,3.303,2.628h-0.104c-0.359,0-0.65,0.291-0.65,0.65v2.604h-2.603c-0.359,0-0.65,0.291-0.65,0.65v4.96
	c0,0.359,0.291,0.65,0.65,0.65h2.603v2.603c0,0.359,0.291,0.65,0.65,0.65h1.83V42.612z M36.958,37.263h-2.603
	c-0.359,0-0.65,0.291-0.65,0.65v2.603h-1.83h-1.83v-2.603c0-0.359-0.291-0.65-0.65-0.65h-2.603v-3.661h2.603
	c0.359,0,0.65-0.291,0.65-0.65v-2.604h0.633h3.027v2.604c0,0.359,0.291,0.65,0.65,0.65h2.603V37.263z"/>
</svg>
